<?xml version="1.0" encoding="utf-8"?>
<!-- Generator: Adobe Illustrator 16.0.0, SVG Export Plug-In . SVG Version: 6.00 Build 0)  -->
<!DOCTYPE svg PUBLIC "-//W3C//DTD SVG 1.1//EN" "http://www.w3.org/Graphics/SVG/1.1/DTD/svg11.dtd">
<svg version="1.1" id="Layer_1" xmlns="http://www.w3.org/2000/svg" xmlns:xlink="http://www.w3.org/1999/xlink" x="0px" y="0px"
	 width="128px" height="128px" viewBox="0 0 128 128" enable-background="new 0 0 128 128" xml:space="preserve">
<path fill="#FFFFFF" d="M119.256,41.242c0-9.047-3.655-17.204-9.585-23.15c-5.941-5.928-14.098-9.583-23.152-9.583
	c-2.298,0-4.163-1.858-4.163-4.161c0-2.301,1.865-4.17,4.163-4.17c22.683,0.01,41.061,18.382,41.063,41.063
	c0,2.311-1.861,4.169-4.164,4.169C121.124,45.411,119.256,43.553,119.256,41.242z"/>
<path fill="#FFFFFF" d="M106.481,41.242c-0.016-11.018-8.939-19.934-19.963-19.961c-2.298,0-4.163-1.862-4.163-4.164
	c0-2.293,1.865-4.162,4.163-4.162c15.621,0,28.281,12.67,28.29,28.287c0,2.311-1.869,4.169-4.163,4.169
	C108.348,45.411,106.481,43.553,106.481,41.242z"/>
<path fill="#FFFFFF" d="M29.147,70.627c-0.195-0.551-0.361-1.107-0.537-1.66c-1.448,0.576-2.752,1.406-3.87,2.531
	c-6.136,6.128-4.061,18.166,4.656,26.887c8.706,8.7,20.739,10.781,26.875,4.652c1.113-1.117,1.949-2.425,2.533-3.873
	c-6.505-1.973-13.039-5.878-18.678-11.517C34.966,82.494,31.26,76.581,29.147,70.627z"/>
<path fill="#FFFFFF" d="M82.264,46.001c-0.787-0.791-1.411-1.684-1.885-2.628l-6.442,6.444L61.815,61.934
	c-0.812,0.812-0.812,2.119,0,2.937l1.583,1.583c0.812,0.811,2.128,0.811,2.927,0l12.138-12.131l6.434-6.426
	C83.95,47.419,83.056,46.797,82.264,46.001z"/>
<path fill="#FFFFFF" d="M98.397,37.734c-0.016-1.986-0.791-3.985-2.335-5.525c-1.534-1.543-3.535-2.32-5.535-2.344
	c-1.98-0.018-3.953,0.718-5.455,2.214c-1.496,1.506-2.228,3.466-2.212,5.454c0.009,0.957,0.195,1.905,0.548,2.812
	c0.392,0.979,0.983,1.923,1.79,2.73c0.804,0.805,1.742,1.394,2.729,1.775c0.902,0.36,1.853,0.553,2.8,0.561
	c1.995,0.01,3.964-0.725,5.46-2.217C97.686,41.693,98.417,39.723,98.397,37.734z"/>
<path fill="#FFFFFF" d="M116.574,106.441l-25.812-25.81c-0.084,1.691-0.314,3.341-0.713,4.925c-0.974,3.873-2.822,7.197-5.504,9.886
	c-2.676,2.668-5.996,4.518-9.869,5.487c-1.074,0.271-2.195,0.445-3.325,0.572l25.077,25.077c0.812,0.811,2.119,0.811,2.928,0
	l17.218-17.206C117.387,108.557,117.387,107.241,116.574,106.441z"/>
<path fill="#FFFFFF" d="M32.341,43.212c2.68-2.67,6.004-4.519,9.877-5.496c1.583-0.385,3.237-0.617,4.932-0.7L21.333,11.188
	c-0.803-0.802-2.121-0.802-2.935,0L1.186,28.412c-0.805,0.814-0.805,2.125,0,2.936l25.07,25.065
	c0.128-1.133,0.314-2.229,0.581-3.314C27.811,49.223,29.66,45.905,32.341,43.212z"/>
<path fill="#FFFFFF" d="M85.023,84.291c0.692-2.76,0.779-5.869,0.279-9.122l-0.072-0.502c-0.907-5.221-3.353-10.818-7.249-15.963
	l-4.57,4.567l-7.324,7.333c-2.029,2.021-5.305,2.021-7.325,0l-1.591-1.595c-2.02-2.012-2.02-5.297,0-7.317l7.329-7.333l4.562-4.561
	c-3.456-2.609-7.094-4.579-10.701-5.868c-1.945-0.682-3.877-1.169-5.759-1.459c-3.256-0.5-6.362-0.417-9.123,0.281
	c-2.906,0.727-5.428,2.09-7.479,4.124c-2.04,2.057-3.404,4.581-4.136,7.484c-0.548,2.191-0.724,4.607-0.517,7.144
	c0.064,0.819,0.171,1.647,0.318,2.485c0.228,1.335,0.557,2.686,0.987,4.058c1.789,5.691,5.297,11.561,10.387,16.662l0.02,0.021
	c4.74,4.728,10.148,8.104,15.47,9.992l1.201,0.379c2.219,0.699,4.41,1.12,6.517,1.296c2.546,0.219,4.963,0.063,7.166-0.493
	c2.904-0.724,5.429-2.092,7.477-4.136C82.933,89.724,84.293,87.194,85.023,84.291z"/>
</svg>
