<?xml version="1.0" encoding="utf-8"?>
<!-- Generator: Adobe Illustrator 16.0.0, SVG Export Plug-In . SVG Version: 6.00 Build 0)  -->
<!DOCTYPE svg PUBLIC "-//W3C//DTD SVG 1.1//EN" "http://www.w3.org/Graphics/SVG/1.1/DTD/svg11.dtd">
<svg version="1.1" id="Layer_1" xmlns="http://www.w3.org/2000/svg" xmlns:xlink="http://www.w3.org/1999/xlink" x="0px" y="0px"
	 width="200px" height="200px" viewBox="0 0 200 200" enable-background="new 0 0 200 200" xml:space="preserve">
<g>
	<path display="none" fill-rule="evenodd" clip-rule="evenodd" fill="#FFFFFF" d="M95.833,98.784c0.006,0,0.013,0,0.02,0
		c0-4.304-0.002-8.609,0-12.912c0.002-2.411-0.806-3.274-3.225-3.28c-8.223-0.017-16.448-0.017-24.67,0.001
		c-2.308,0.006-2.993,0.918-2.351,3.208c0.521,1.854,1.245,3.647,1.782,5.496c2.235,7.7,4.438,15.405,6.64,23.115
		c0.509,1.781,1.656,2.496,3.468,2.271c5.161-0.637,10.327-1.252,15.489-1.898c2.266-0.286,2.845-0.981,2.846-3.28
		C95.834,107.265,95.833,103.024,95.833,98.784z"/>
	<path display="none" fill-rule="evenodd" clip-rule="evenodd" fill="#FFFFFF" d="M160.854,82.613c0-0.01,0-0.022,0-0.033
		c-3.915,0-7.832-0.009-11.748,0.003c-2.056,0.006-3.024,0.757-3.038,2.641c-0.048,6.869-0.044,13.738,0.023,20.606
		c0.019,1.839,0.968,2.423,2.828,2.168c3.047-0.42,6.105-0.782,9.158-1.17c3.503-0.443,7.002-0.901,10.507-1.327
		c2.022-0.245,2.883-1.332,3.228-3.382c0.912-5.431,2.037-10.83,3.172-16.223c0.466-2.221-0.123-3.236-2.38-3.268
		C168.689,82.575,164.771,82.613,160.854,82.613z"/>
	<path display="none" fill-rule="evenodd" clip-rule="evenodd" fill="#FFFFFF" d="M67.396,196.389
		c-11.002,0.658-16.186-8.77-16.158-16.2c0.032-9.021,7.883-16.628,16.875-16.556c9.227,0.08,16.956,7.819,16.606,17.139
		C84.386,189.612,78.819,196.827,67.396,196.389z"/>
	<path display="none" fill-rule="evenodd" clip-rule="evenodd" fill="#FFFFFF" d="M163.009,196.381
		c-10.862,0.251-16.34-7.514-16.473-15.855c-0.141-8.987,7.238-16.818,16.632-16.881c9.184-0.063,16.888,7.551,16.685,16.808
		C179.64,190.194,173.85,196.171,163.009,196.381z"/>
	<g>
		<path fill="#FFFFFF" d="M163.168,163.645c-9.394,0.063-16.772,7.894-16.632,16.881c0.133,8.342,5.61,16.106,16.473,15.855
			c10.841-0.21,16.631-6.187,16.844-15.929C180.056,171.195,172.352,163.582,163.168,163.645z"/>
		<path fill="#FFFFFF" d="M68.113,163.633c-8.992-0.072-16.843,7.535-16.875,16.556c-0.027,7.431,5.156,16.858,16.158,16.2
			c11.423,0.438,16.991-6.776,17.324-15.617C85.068,171.452,77.34,163.713,68.113,163.633z"/>
		<path fill="#FFFFFF" d="M189.879,30.562C145.1,30.56,100.321,30.56,55.542,30.561c-1.284,0-2.57,0.043-3.853-0.005
			c-1.481-0.056-2.604-0.711-3.043-2.209c-1.934-6.584-3.925-13.154-5.743-19.771c-1.176-4.273-3.735-6.815-8.107-6.877
			C26.204,1.582,17.603,1.545,9.015,1.82c-5.88,0.188-7.492,2.199-7.57,8.117c-0.007,0.448-0.003,0.899,0.029,1.348
			c0.183,2.542,1.113,4.701,3.622,5.66c1.519,0.582,3.187,1.029,4.799,1.067c5.136,0.121,10.278,0.013,15.417,0.01
			c1.602,0,3.117,0.166,3.673,2.079c1.218,4.188,2.487,8.361,3.699,12.551c2.228,7.7,4.429,15.407,6.641,23.111
			c0.727,2.529,1.417,5.067,2.183,7.583c1.569,5.152,3.233,10.274,4.755,15.438c1.632,5.537,3.08,11.129,4.729,16.66
			c2.729,9.154,5.572,18.274,8.304,27.428c0.201,0.666,0.049,1.53-0.183,2.22c-1.229,3.634-2.739,7.183-3.777,10.866
			c-2.146,7.615,2.948,16.653,10.461,19.166c5.03,1.68,10.147,2.132,15.395,1.684c11.583-0.99,23.158-2.063,34.751-2.889
			c10.57-0.755,21.162-1.229,31.745-1.829c0-0.156-0.002-0.312-0.002-0.468c9.248,0,18.496,0.004,27.741-0.008
			c0.96,0,1.938,0.006,2.877-0.157c2.715-0.47,4.937-2.99,5.163-5.741c0.322-3.941-2.397-7.043-6.684-7.396
			c-2.492-0.209-5.017-0.302-7.509-0.174c-22.964,1.172-45.928,2.344-68.88,3.652c-7.179,0.406-14.325,1.306-21.498,1.816
			c-2.987,0.214-6.04,0.318-8.82-1.295c-1.847-1.068-2.384-2.595-1.853-4.566c0.506-1.879,1.545-3.235,3.632-3.483
			c5.611-0.671,11.223-1.347,16.835-2.015c8.862-1.057,17.727-2.089,26.586-3.169c13.13-1.602,26.255-3.243,39.384-4.864
			c8.032-0.995,16.063-1.97,24.092-2.986c2.746-0.347,5.126-1.513,6.445-4.018c0.797-1.509,1.263-3.239,1.606-4.925
			c1.394-6.79,2.717-13.593,4.003-20.403c2.49-13.183,5.027-26.358,7.353-39.57c0.73-4.155,1.17-8.416,1.178-12.63
			C199.351,32.417,197.233,30.562,189.879,30.562z M103.626,51.066c-0.002-3.181,0.528-3.688,3.675-3.68
			c8.987,0.019,17.978,0.017,26.965,0c3.26-0.008,3.753,0.483,3.751,3.799c-0.008,6.804,0.004,13.609,0.018,20.414
			c0.006,2.182-0.638,2.924-2.832,2.942c-4.814,0.039-9.629,0.012-14.445,0.012c-4.621,0.004-9.243,0.01-13.866,0.002
			c-2.711-0.004-3.284-0.625-3.272-3.268C103.644,64.548,103.632,57.806,103.626,51.066z M95.853,98.784c-0.007,0-0.014,0-0.02,0
			c0,4.24,0.001,8.48-0.002,12.72c-0.001,2.299-0.581,2.994-2.846,3.28c-5.162,0.646-10.328,1.262-15.489,1.898
			c-1.812,0.226-2.959-0.489-3.468-2.271c-2.201-7.71-4.405-15.416-6.64-23.115c-0.537-1.849-1.261-3.643-1.782-5.496
			c-0.642-2.29,0.043-3.202,2.351-3.208c8.222-0.018,16.447-0.018,24.67-0.001c2.418,0.006,3.227,0.869,3.225,3.28
			C95.851,90.175,95.853,94.48,95.853,98.784z M93.239,74.525c-9.689,0.039-19.375,0.013-29.063,0.012
			c-1.267,0-2.025-0.615-2.375-1.825c-1.897-6.583-3.803-13.164-5.723-19.741c-0.231-0.797-0.552-1.57-0.873-2.336
			c-0.976-2.333-0.427-3.211,2.15-3.223c5.901-0.026,11.804-0.008,17.707-0.008c0-0.007,0-0.013,0-0.018
			c5.709,0,11.419,0.002,17.13-0.002c2.999-0.003,3.646,0.634,3.646,3.579c0.001,6.927,0.012,13.855,0.018,20.784
			C95.857,73.675,95.172,74.519,93.239,74.525z M135.451,109.511c-9.746,1.199-19.494,2.393-29.245,3.525
			c-1.81,0.208-2.59-0.625-2.594-2.495c-0.018-8.279-0.018-16.562,0.002-24.843c0.004-2.3,0.862-3.114,3.173-3.116
			c4.686-0.005,9.372-0.001,14.059-0.001c4.622,0.001,9.244,0,13.866,0.001c2.527,0,3.324,0.813,3.324,3.356
			c-0.006,6.804-0.041,13.609,0.021,20.415C138.075,108.255,137.257,109.287,135.451,109.511z M174.984,85.896
			c-1.135,5.393-2.26,10.792-3.172,16.223c-0.345,2.05-1.205,3.137-3.228,3.382c-3.505,0.426-7.004,0.884-10.507,1.327
			c-3.053,0.388-6.111,0.75-9.158,1.17c-1.86,0.255-2.81-0.329-2.828-2.168c-0.067-6.869-0.071-13.737-0.023-20.606
			c0.014-1.884,0.982-2.635,3.038-2.641c3.916-0.012,7.833-0.003,11.748-0.003c0,0.011,0,0.023,0,0.033
			c3.917,0,7.835-0.038,11.75,0.016C174.861,82.66,175.45,83.675,174.984,85.896z M181.587,50.562
			c-0.997,5.364-2.104,10.707-3.135,16.066c-0.338,1.763-0.641,3.537-0.85,5.321c-0.198,1.69-1.047,2.581-2.747,2.584
			c-8.797,0.012-17.596,0.023-26.394,0.004c-1.644-0.003-2.438-0.932-2.431-2.576c0.014-7.193,0.002-14.384,0.031-21.577
			c0.01-2.352,0.75-3.006,3.206-3.005c4.943,0,9.89,0,14.834,0c0-0.003,0-0.007,0-0.011c4.945,0,9.889,0.007,14.833-0.003
			C181.396,47.361,182.054,48.054,181.587,50.562z"/>
	</g>
</g>
</svg>
