<?xml version="1.0" encoding="utf-8"?>
<!-- Generator: Adobe Illustrator 16.0.0, SVG Export Plug-In . SVG Version: 6.00 Build 0)  -->
<!DOCTYPE svg PUBLIC "-//W3C//DTD SVG 1.1//EN" "http://www.w3.org/Graphics/SVG/1.1/DTD/svg11.dtd">
<svg version="1.1" id="Layer_1" xmlns="http://www.w3.org/2000/svg" xmlns:xlink="http://www.w3.org/1999/xlink" x="0px" y="0px"
	 width="63px" height="128px" viewBox="0 0 63 128" enable-background="new 0 0 63 128" xml:space="preserve">
<path fill="#FFFFFF" d="M37.039,51.783c1.391,2.436,2.191,5.43,2.199,8.433c0.035,5.058-2.523,9.448-6.529,10.736v6.027h27.713
	c-1.346-10.658-5.062-21.095-10.195-28.917c-4.973-7.578-11.139-12.535-17.518-13.481v13.028
	C34.6,48.392,36.008,50.015,37.039,51.783z"/>
<path fill="#07B4C1" d="M30.488,30.011l-2.184-0.004v0.133c0.592-0.066,1.188-0.106,1.792-0.123L30.488,30.011z"/>
<path fill="#FFFFFF" d="M0.113,82.137C0.031,83.482,0,84.784,0,86.224c-0.002,12.473,3.556,22.966,9.144,30.242
	c5.605,7.293,13.13,11.371,21.424,11.384c8.297-0.013,15.82-4.091,21.426-11.384c5.59-7.276,9.152-17.77,9.152-30.242
	c0-1.435-0.035-2.763-0.125-4.118L0.113,82.137z M34.842,118.027L34.842,118.027h-0.023c-0.799,0-1.457-0.635-1.471-1.438
	c-0.018-0.809,0.627-1.479,1.439-1.501c10.604-0.146,19.416-10.839,19.42-24.342v-0.623c-0.018-0.799,0.641-1.47,1.449-1.479
	c0.807-0.014,1.475,0.635,1.482,1.438l0.01,0.663C57.152,105.439,47.51,117.727,34.842,118.027z"/>
<path fill="#FFFFFF" d="M21.501,60.216c0.002-2.983,0.792-5.943,2.158-8.371c1.013-1.768,2.401-3.394,4.265-4.196V34.613
	c-6.336,1.017-12.457,5.994-17.383,13.552C5.435,55.97,1.746,66.363,0.411,76.979h27.519v-6.072
	C23.971,69.586,21.459,65.233,21.501,60.216z"/>
<path fill="#07B4C1" d="M32.336,30.115v-0.128l-1.848,0.024h0.031C31.127,30.017,31.732,30.057,32.336,30.115z"/>
<path fill="#FFFFFF" d="M19.585,13.422c2.643,1.368,6.005,1.666,8.602,2.457c1.293,0.375,2.345,0.855,2.976,1.423
	c0.619,0.593,0.941,1.168,0.965,2.349c0.018,1.533-0.795,4.125-3.101,7.914c-0.418,0.693-0.2,1.6,0.493,2.019l0.76,0.211
	c0.492,0,0.98-0.25,1.256-0.708l0,0c2.422-4.016,3.51-6.967,3.527-9.435c0.053-2.554-1.416-4.465-3.197-5.427
	c-2.662-1.491-6.049-1.81-8.663-2.561c-1.304-0.36-2.372-0.811-2.996-1.335c-0.608-0.542-0.902-1.02-0.922-2.079
	c-0.02-1.223,0.598-3.278,2.35-6.229c0.411-0.7,0.182-1.599-0.517-2.006c-0.693-0.422-1.6-0.185-2.006,0.509
	c-1.881,3.183-2.752,5.619-2.766,7.727C16.295,10.717,17.819,12.542,19.585,13.422z"/>
</svg>
