<?xml version="1.0" encoding="utf-8"?>
<!-- Generator: Adobe Illustrator 16.0.0, SVG Export Plug-In . SVG Version: 6.00 Build 0)  -->
<!DOCTYPE svg PUBLIC "-//W3C//DTD SVG 1.1//EN" "http://www.w3.org/Graphics/SVG/1.1/DTD/svg11.dtd">
<svg version="1.1" id="Layer_1" xmlns="http://www.w3.org/2000/svg" xmlns:xlink="http://www.w3.org/1999/xlink" x="0px" y="0px"
	 width="204.336px" height="42.25px" viewBox="0 0 204.336 42.25" enable-background="new 0 0 204.336 42.25" xml:space="preserve">
<path fill="#FFFFFF" d="M13.94,26.188c0.647-0.334,1.178-0.784,1.601-1.348c0.421-0.558,0.734-1.196,0.946-1.912
	c0.21-0.712,0.313-1.466,0.313-2.248c0-0.9-0.081-1.747-0.25-2.547c-0.168-0.796-0.45-1.506-0.841-2.122
	c-0.394-0.615-0.913-1.105-1.557-1.471c-0.646-0.366-1.458-0.549-2.439-0.549c-0.841,0-1.563,0.168-2.166,0.505
	c-0.604,0.334-1.109,0.791-1.517,1.366c-0.406,0.578-0.699,1.234-0.88,1.974c-0.185,0.748-0.271,1.526-0.271,2.334
	c0,0.787,0.075,1.565,0.23,2.335c0.154,0.775,0.42,1.469,0.798,2.084c0.377,0.616,0.877,1.123,1.492,1.514
	c0.616,0.394,1.389,0.591,2.313,0.591C12.553,26.695,13.296,26.525,13.94,26.188 M22.122,33.423
	c-0.238,1.121-0.75,2.165-1.535,3.134c-0.784,0.966-1.921,1.789-3.405,2.463c-1.488,0.668-3.478,1.006-5.973,1.006
	c-1.065,0-2.153-0.135-3.262-0.4c-1.106-0.266-2.115-0.681-3.024-1.241C4.01,37.826,3.253,37.1,2.65,36.22
	c-0.603-0.882-0.947-1.944-1.031-3.176H7.55c0.281,1.122,0.826,1.9,1.641,2.335c0.813,0.432,1.75,0.653,2.815,0.653
	c1.685,0,2.91-0.507,3.682-1.516c0.769-1.013,1.145-2.284,1.112-3.828v-2.859h-0.081c-0.647,1.15-1.563,1.997-2.756,2.543
	c-1.192,0.547-2.448,0.823-3.763,0.823c-1.628,0-3.029-0.286-4.207-0.864c-1.178-0.573-2.144-1.357-2.902-2.355
	c-0.757-0.994-1.311-2.156-1.66-3.49c-0.349-1.332-0.528-2.742-0.528-4.225c0-1.407,0.203-2.758,0.612-4.061
	c0.404-1.303,1.001-2.452,1.785-3.45c0.788-0.993,1.759-1.787,2.925-2.374c1.163-0.591,2.502-0.885,4.015-0.885
	c1.431,0,2.686,0.265,3.766,0.801c1.079,0.534,1.982,1.431,2.713,2.69H16.8v-2.901h5.681v20.354
	C22.481,31.308,22.36,32.301,22.122,33.423"/>
<rect x="27.443" y="1.797" fill="#FFFFFF" width="5.972" height="30.028"/>
<path fill="#FFFFFF" d="M43.675,23.52c0.169,0.824,0.456,1.569,0.864,2.231c0.406,0.656,0.946,1.181,1.617,1.574
	c0.673,0.394,1.517,0.588,2.525,0.588c1.01,0,1.857-0.194,2.543-0.588c0.688-0.394,1.235-0.918,1.641-1.574
	c0.407-0.663,0.694-1.407,0.864-2.231c0.167-0.828,0.253-1.678,0.253-2.546c0-0.87-0.085-1.723-0.253-2.563
	c-0.169-0.844-0.457-1.587-0.864-2.231c-0.406-0.644-0.952-1.169-1.641-1.575c-0.687-0.406-1.533-0.609-2.543-0.609
	c-1.009,0-1.853,0.203-2.525,0.609c-0.671,0.406-1.211,0.931-1.617,1.575c-0.408,0.644-0.694,1.387-0.864,2.231
	c-0.168,0.84-0.249,1.694-0.249,2.563C43.427,21.841,43.507,22.691,43.675,23.52 M38.251,16.241
	c0.531-1.416,1.291-2.618,2.272-3.616c0.981-0.996,2.159-1.766,3.531-2.312c1.375-0.551,2.919-0.822,4.628-0.822
	s3.259,0.271,4.648,0.822c1.387,0.546,2.571,1.315,3.552,2.312c0.981,0.998,1.741,2.2,2.272,3.616
	c0.531,1.416,0.796,2.997,0.796,4.732c0,1.741-0.266,3.31-0.796,4.712c-0.531,1.401-1.291,2.6-2.272,3.596
	c-0.981,0.995-2.166,1.76-3.552,2.292c-1.389,0.531-2.939,0.797-4.648,0.797s-3.253-0.266-4.628-0.797
	c-1.372-0.532-2.55-1.297-3.531-2.292c-0.981-0.996-1.741-2.195-2.272-3.596c-0.531-1.402-0.8-2.971-0.8-4.712
	C37.451,19.238,37.72,17.657,38.251,16.241"/>
<path fill="#FFFFFF" d="M79.468,18.324c-0.197-0.841-0.507-1.584-0.925-2.228c-0.422-0.647-0.947-1.155-1.578-1.537
	c-0.632-0.378-1.398-0.566-2.295-0.566c-0.868,0-1.625,0.188-2.268,0.566c-0.647,0.382-1.179,0.89-1.601,1.537
	c-0.418,0.644-0.728,1.387-0.925,2.228c-0.197,0.838-0.294,1.723-0.294,2.647c0,0.9,0.098,1.771,0.294,2.609
	c0.197,0.841,0.507,1.587,0.925,2.23c0.421,0.644,0.954,1.153,1.601,1.535c0.643,0.378,1.399,0.566,2.268,0.566
	c0.897,0,1.663-0.188,2.295-0.566c0.63-0.382,1.155-0.891,1.578-1.535c0.418-0.644,0.728-1.39,0.925-2.23
	c0.194-0.838,0.294-1.709,0.294-2.609C79.762,20.047,79.662,19.162,79.468,18.324 M69.794,1.797v10.934h0.083
	c0.728-1.123,1.718-1.94,2.965-2.459c1.249-0.52,2.544-0.778,3.891-0.778c1.094,0,2.171,0.224,3.238,0.668
	c1.065,0.453,2.025,1.139,2.881,2.066c0.856,0.921,1.55,2.105,2.082,3.549c0.534,1.446,0.799,3.163,0.799,5.157
	c0,1.99-0.265,3.708-0.799,5.15c-0.531,1.446-1.226,2.627-2.082,3.552c-0.856,0.925-1.816,1.616-2.881,2.063
	c-1.066,0.447-2.144,0.668-3.238,0.668c-1.599,0-3.027-0.25-4.291-0.752c-1.262-0.507-2.215-1.359-2.859-2.566h-0.084v2.775h-5.678
	V1.797H69.794z"/>
<path fill="#FFFFFF" d="M102.661,15.167c-0.716-0.781-1.804-1.175-3.261-1.175c-0.952,0-1.743,0.16-2.375,0.485
	c-0.631,0.322-1.137,0.719-1.515,1.199c-0.378,0.473-0.644,0.981-0.801,1.514c-0.153,0.534-0.243,1.009-0.272,1.427h9.715
	C103.873,17.102,103.377,15.954,102.661,15.167 M95.911,26.611c0.897,0.87,2.187,1.303,3.868,1.303c1.207,0,2.245-0.299,3.113-0.903
	c0.868-0.605,1.404-1.243,1.601-1.915h5.255c-0.839,2.606-2.13,4.473-3.868,5.594c-1.738,1.122-3.841,1.681-6.31,1.681
	c-1.709,0-3.253-0.272-4.628-0.819c-1.372-0.546-2.535-1.324-3.488-2.334c-0.955-1.009-1.691-2.216-2.209-3.615
	c-0.518-1.404-0.777-2.948-0.777-4.628c0-1.625,0.266-3.142,0.8-4.544c0.531-1.401,1.288-2.612,2.272-3.635
	c0.978-1.022,2.15-1.834,3.509-2.422c1.36-0.587,2.866-0.882,4.521-0.882c1.849,0,3.462,0.357,4.837,1.073
	c1.372,0.718,2.501,1.674,3.384,2.881c0.885,1.205,1.523,2.578,1.917,4.118c0.391,1.544,0.531,3.157,0.418,4.842H94.438
	C94.523,24.339,95.014,25.743,95.911,26.611"/>
<path fill="#FFFFFF" d="M119.464,10.081v2.943h0.084c0.785-1.121,1.732-1.988,2.838-2.605c1.106-0.617,2.377-0.925,3.806-0.925
	c1.372,0,2.629,0.266,3.766,0.799c1.134,0.531,1.998,1.471,2.585,2.815c0.647-0.953,1.521-1.793,2.627-2.522
	c1.109-0.731,2.418-1.092,3.936-1.092c1.149,0,2.212,0.14,3.196,0.418c0.981,0.28,1.822,0.73,2.521,1.347
	c0.7,0.615,1.248,1.422,1.642,2.418c0.394,0.993,0.587,2.194,0.587,3.597v14.551h-5.969V19.499c0-0.728-0.032-1.414-0.084-2.059
	c-0.06-0.644-0.214-1.204-0.467-1.682c-0.249-0.474-0.621-0.853-1.112-1.135c-0.49-0.281-1.155-0.421-1.999-0.421
	c-0.838,0-1.52,0.161-2.039,0.485c-0.519,0.321-0.924,0.743-1.217,1.259c-0.298,0.522-0.492,1.113-0.591,1.769
	c-0.098,0.659-0.148,1.322-0.148,1.998v12.112h-5.971V19.627c0-0.642-0.017-1.28-0.041-1.912c-0.032-0.631-0.146-1.213-0.36-1.747
	c-0.209-0.531-0.559-0.959-1.053-1.28c-0.487-0.324-1.211-0.485-2.165-0.485c-0.281,0-0.65,0.065-1.112,0.19
	c-0.462,0.125-0.913,0.364-1.348,0.713c-0.433,0.352-0.806,0.855-1.112,1.515c-0.31,0.659-0.465,1.521-0.465,2.588v12.616h-5.969
	V10.081H119.464z"/>
<path fill="#FFFFFF" d="M164.358,21.71c-0.378,0.125-0.784,0.232-1.219,0.316c-0.438,0.081-0.891,0.154-1.369,0.206
	c-0.475,0.06-0.954,0.131-1.428,0.213c-0.45,0.084-0.891,0.197-1.324,0.337c-0.435,0.144-0.816,0.332-1.135,0.569
	c-0.325,0.237-0.584,0.537-0.781,0.902c-0.194,0.366-0.293,0.828-0.293,1.389c0,0.534,0.099,0.98,0.293,1.346
	c0.197,0.366,0.467,0.65,0.801,0.863c0.337,0.209,0.728,0.358,1.178,0.439c0.447,0.086,0.909,0.125,1.387,0.125
	c1.178,0,2.087-0.196,2.734-0.587c0.644-0.391,1.121-0.862,1.431-1.409c0.307-0.544,0.498-1.097,0.566-1.66
	c0.069-0.563,0.105-1.011,0.105-1.344v-2.234C165.051,21.411,164.737,21.582,164.358,21.71 M152.562,13.279
	c0.615-0.929,1.399-1.669,2.356-2.232c0.949-0.558,2.025-0.958,3.215-1.199c1.195-0.234,2.391-0.355,3.597-0.355
	c1.094,0,2.2,0.078,3.322,0.23c1.123,0.157,2.147,0.456,3.07,0.906c0.928,0.447,1.683,1.068,2.271,1.869
	c0.592,0.797,0.885,1.859,0.885,3.179v11.312c0,0.981,0.057,1.919,0.169,2.819c0.108,0.896,0.305,1.569,0.587,2.019h-6.056
	c-0.113-0.338-0.203-0.682-0.273-1.032c-0.071-0.351-0.117-0.706-0.146-1.072c-0.955,0.981-2.075,1.669-3.364,2.06
	c-1.291,0.394-2.611,0.588-3.954,0.588c-1.038,0-2.006-0.125-2.904-0.376c-0.897-0.253-1.682-0.646-2.353-1.178
	c-0.674-0.534-1.199-1.205-1.578-2.019c-0.378-0.812-0.569-1.781-0.569-2.902c0-1.234,0.215-2.251,0.653-3.05
	c0.435-0.8,0.993-1.435,1.682-1.914c0.688-0.475,1.472-0.833,2.356-1.071c0.882-0.241,1.771-0.429,2.668-0.569
	c0.897-0.14,1.782-0.253,2.65-0.337c0.869-0.081,1.641-0.206,2.312-0.378c0.676-0.165,1.207-0.412,1.601-0.737
	c0.391-0.319,0.575-0.79,0.546-1.41c0-0.641-0.105-1.151-0.314-1.53c-0.21-0.381-0.491-0.676-0.841-0.882
	c-0.354-0.212-0.76-0.355-1.222-0.424c-0.462-0.066-0.96-0.104-1.494-0.104c-1.175,0-2.1,0.254-2.776,0.757
	c-0.671,0.502-1.065,1.346-1.175,2.521h-5.975C151.593,15.367,151.942,14.204,152.562,13.279"/>
<path fill="#FFFFFF" d="M181.581,10.081v4.038h0.084c0.281-0.673,0.659-1.294,1.134-1.873c0.479-0.572,1.025-1.065,1.645-1.472
	c0.615-0.406,1.274-0.719,1.974-0.943c0.701-0.226,1.428-0.337,2.188-0.337c0.391,0,0.824,0.071,1.303,0.209v5.553
	c-0.282-0.06-0.619-0.107-1.01-0.149c-0.394-0.042-0.772-0.063-1.137-0.063c-1.091,0-2.019,0.182-2.776,0.546
	c-0.757,0.366-1.366,0.862-1.828,1.494c-0.462,0.631-0.793,1.365-0.987,2.209c-0.197,0.841-0.298,1.75-0.298,2.731v9.801h-5.971
	V10.081H181.581z"/>
<path fill="#FFFFFF" d="M204.207,10.081v3.997h-4.372v10.767c0,1.008,0.165,1.68,0.502,2.017c0.338,0.339,1.01,0.504,2.019,0.504
	c0.339,0,0.661-0.013,0.966-0.04c0.31-0.029,0.607-0.07,0.885-0.125v4.625c-0.507,0.084-1.065,0.141-1.682,0.168
	c-0.618,0.029-1.222,0.041-1.81,0.041c-0.925,0-1.799-0.063-2.628-0.188c-0.828-0.128-1.556-0.373-2.188-0.737
	c-0.63-0.363-1.127-0.882-1.494-1.557c-0.365-0.668-0.546-1.553-0.546-2.65V14.078h-3.616v-3.997h3.616v-6.52h5.975v6.52H204.207z"
	/>
</svg>
